# Blender v3.0.0 OBJ File: ''
# www.blender.org
mtllib SatelliteObj.mtl
o Satellite_Plane.001
v 0.133446 0.022500 0.295099
v 0.003252 0.022500 0.881360
v 0.003252 -0.022500 0.881360
v 0.133446 -0.022500 0.295099
v -0.129688 0.022500 0.267195
v -0.059980 0.022500 0.135322
v -0.060335 -0.022500 0.135994
v -0.129688 -0.022500 0.267195
v -0.003252 0.022500 0.881360
v -0.133446 0.022500 0.295099
v -0.133446 -0.022500 0.295099
v -0.003252 -0.022500 0.881360
v 0.133692 -0.022500 0.280861
v 0.133692 0.022500 0.280861
v 0.129688 -0.022500 0.267195
v 0.129688 0.022500 0.267195
v 0.000000 -0.022500 0.885402
v 0.000000 0.022500 0.885402
v -0.133692 -0.022500 0.280861
v -0.133692 0.022500 0.280861
v 0.059980 0.022500 0.135322
v 0.027822 0.022500 0.148294
v 0.000000 0.022500 0.152943
v -0.027822 0.022500 0.148294
v -0.027845 -0.022500 0.149023
v 0.000000 -0.022500 0.153648
v 0.027845 -0.022500 0.149023
v 0.060335 -0.022500 0.135994
v -0.063226 0.025894 0.133606
v -0.063551 -0.025931 0.134294
v 0.027822 0.027500 0.148294
v 0.000000 0.027500 0.152943
v 0.000000 -0.027500 0.153648
v 0.027845 -0.027500 0.149023
v 0.063551 -0.025931 0.134294
v 0.063226 0.025894 0.133606
v -0.027822 0.027500 0.148294
v -0.027845 -0.027500 0.149023
v 0.000000 0.025477 0.040620
v 0.022470 0.025799 0.056527
v 0.022470 -0.025799 0.056527
v 0.000000 -0.025477 0.040620
v -0.022470 0.025799 0.056527
v -0.022470 -0.025799 0.056527
vt 0.829782 0.145498
vt 0.829782 0.804034
vt 0.779108 0.804034
vt 0.779108 0.145498
vt 0.690105 0.119009
vt 0.690105 0.019165
vt 0.740779 0.019673
vt 0.740779 0.119009
vt 0.690105 0.804034
vt 0.690105 0.145498
vt 0.740779 0.145498
vt 0.740779 0.804034
vt 0.779108 0.130927
vt 0.829782 0.130927
vt 0.779108 0.119009
vt 0.829782 0.119009
vt 0.740779 0.809723
vt 0.690105 0.809723
vt 0.829782 0.809723
vt 0.779108 0.809723
vt 0.740779 0.130927
vt 0.690105 0.130927
vt 0.316305 0.700633
vt 0.313100 0.716345
vt 0.305362 0.730389
vt 0.196539 0.858332
vt 0.164354 0.836221
vt 0.134904 0.824319
vt 0.103185 0.822636
vt 0.064666 0.829045
vt 0.020230 0.667066
vt 0.019165 0.651066
vt 0.022912 0.635474
vt 0.309156 0.022815
vt 0.313717 0.019165
vt 0.316305 0.024402
vt 0.355701 0.667066
vt 0.354635 0.651066
vt 0.358382 0.635475
vt 0.644626 0.022815
vt 0.649188 0.019165
vt 0.651776 0.024402
vt 0.651776 0.700633
vt 0.648570 0.716345
vt 0.640832 0.730390
vt 0.532563 0.857681
vt 0.500027 0.835426
vt 0.470546 0.823544
vt 0.438808 0.821830
vt 0.399910 0.828220
vt 0.779108 0.019673
vt 0.829782 0.019165
vt 0.924449 0.023022
vt 0.928274 0.019604
vt 0.869914 0.019165
vt 0.873774 0.022550
vt 0.924425 0.119658
vt 0.930056 0.119657
vt 0.930047 0.087940
vt 0.924417 0.087941
vt 0.873742 0.087861
vt 0.868112 0.087862
vt 0.868120 0.119602
vt 0.873750 0.119601
vt 0.873774 0.157593
vt 0.869914 0.161404
vt 0.928274 0.161117
vt 0.924449 0.157270
vt 0.930056 0.057386
vt 0.924425 0.057387
vt 0.873750 0.057279
vt 0.868120 0.057280
vt 0.891267 0.451953
vt 0.868112 0.452283
vt 0.868112 0.394179
vt 0.891267 0.394576
vt 0.918404 0.452292
vt 0.918404 0.394188
vt 0.690105 0.914907
vt 0.717903 0.881446
vt 0.743195 0.862195
vt 0.773352 0.852154
vt 0.816658 0.848052
vt 0.816658 0.947090
vt 0.802654 0.974750
vt 0.771912 0.970728
vt 0.868219 0.355850
vt 0.868112 0.297496
vt 0.926471 0.296957
vt 0.926323 0.355850
vt 0.868112 0.199734
vt 0.926471 0.200273
vt 0.926364 0.258627
vt 0.868260 0.258627
vt 0.914273 0.848052
vt 0.947546 0.875558
vt 0.966818 0.900807
vt 0.976835 0.930950
vt 0.980835 0.973933
vt 0.882653 0.973933
vt 0.854988 0.959939
vt 0.858998 0.929196
vn 0.9762 0.0000 0.2168
vn -0.8841 -0.0000 -0.4673
vn -0.9762 0.0000 0.2168
vn 0.9999 0.0000 0.0173
vn 0.9911 0.0000 -0.1335
vn 0.9597 0.0000 -0.2812
vn -0.7791 0.0000 0.6269
vn 0.0000 0.0000 1.0000
vn 0.7791 0.0000 0.6269
vn -0.9597 0.0000 -0.2812
vn -0.9911 0.0000 -0.1335
vn -0.9999 0.0000 0.0173
vn 0.0000 1.0000 0.0000
vn -0.0000 -1.0000 -0.0000
vn 0.8841 -0.0000 -0.4673
vn -0.4674 0.0157 0.8839
vn 0.2739 0.0213 0.9615
vn 0.2724 0.0210 0.9619
vn 0.2710 -0.0211 0.9623
vn 0.2724 -0.0214 0.9619
vn 0.4674 0.0157 0.8839
vn -0.2724 0.0210 0.9619
vn -0.2739 0.0213 0.9615
vn 0.3775 -0.0425 0.9250
vn -0.2724 -0.0214 0.9619
vn -0.2710 -0.0211 0.9623
vn 0.3794 0.0422 0.9243
vn -0.3794 0.0422 0.9243
vn -0.3775 -0.0425 0.9250
vn 0.5778 0.0000 -0.8162
vn -0.5778 0.0000 -0.8162
vn 0.0000 -0.9998 -0.0190
vn 0.8841 -0.0003 -0.4673
vn -0.8841 -0.0003 -0.4673
vn 0.0000 0.9998 -0.0192
usemtl Inside
s 1
f 1/1/1 2/2/1 3/3/1 4/4/1
f 5/5/2 6/6/2 7/7/2 8/8/2
f 9/9/3 10/10/3 11/11/3 12/12/3
f 1/1/4 4/4/4 13/13/5 14/14/5
f 14/14/5 13/13/5 15/15/6 16/16/6
f 9/9/7 12/12/7 17/17/8 18/18/8
f 18/19/8 17/20/8 3/3/9 2/2/9
f 5/5/10 8/8/10 19/21/11 20/22/11
f 20/22/11 19/21/11 11/11/12 10/10/12
f 1/23/13 14/24/13 16/25/13 21/26/13 22/27/13 23/28/13 24/29/13 6/30/13 5/31/13 20/32/13 10/33/13 9/34/13 18/35/13 2/36/13
f 15/37/14 13/38/14 4/39/14 3/40/14 17/41/14 12/42/14 11/43/14 19/44/14 8/45/14 7/46/14 25/47/14 26/48/14 27/49/14 28/50/14
f 28/51/15 21/52/15 16/16/15 15/15/15
usemtl Cover
s off
f 6/53/16 29/54/16 30/55/16 7/56/16
f 22/57/17 31/58/18 32/59/8 23/60/8
f 26/61/8 33/62/8 34/63/19 27/64/20
f 28/65/21 35/66/21 36/67/21 21/68/21
f 23/60/8 32/59/8 37/69/22 24/70/23
f 27/64/20 34/63/19 35/66/24 28/65/24
f 25/71/25 38/72/26 33/62/8 26/61/8
f 21/68/27 36/67/27 31/58/18 22/57/17
f 24/70/23 37/69/22 29/54/28 6/53/28
f 7/56/29 30/55/29 38/72/26 25/71/25
s 1
f 39/73/30 40/74/30 41/75/30 42/76/30
f 43/77/31 39/73/31 42/76/31 44/78/31
f 35/79/32 34/80/32 33/81/32 38/82/32 30/83/32 44/84/32 42/85/32 41/86/32
f 40/87/33 36/88/33 35/89/33 41/90/33
f 30/91/34 29/92/34 43/93/34 44/94/34
f 29/95/35 37/96/35 32/97/35 31/98/35 36/99/35 40/100/35 39/101/35 43/102/35
