# Blender v3.0.0 OBJ File: ''
# www.blender.org
mtllib SatelliteHighlight.mtl
o Satellite_Plane.002
v 0.133692 -0.022500 0.280861
v 0.133692 0.022500 0.280861
v 0.000000 -0.022500 0.885402
v 0.000000 0.022500 0.885402
v -0.133692 -0.022500 0.280861
v -0.133692 0.022500 0.280861
v 0.000000 0.022500 0.013087
v 0.000000 -0.022500 0.013792
vt 0.829782 0.809723
vt 0.779108 0.809723
vt 0.779108 0.130927
vt 0.829782 0.130927
vt 0.690105 0.130927
vt 0.740779 0.130927
vt 0.740779 0.809723
vt 0.690105 0.809723
vt 0.134904 0.824319
vt 0.470546 0.823544
vt 0.313717 0.019165
vt 0.313100 0.716345
vt 0.019165 0.651066
vt 0.354635 0.651066
vt 0.649188 0.019165
vt 0.648570 0.716345
vn 0.9764 0.0000 0.2159
vn -0.9764 0.0000 0.2159
vn -0.8944 -0.0035 -0.4472
vn 0.0000 1.0000 0.0000
vn 0.0000 -1.0000 -0.0000
vn 0.8944 -0.0035 -0.4472
usemtl Inside.001
s off
f 4/1/1 3/2/1 1/3/1 2/4/1
f 6/5/2 5/6/2 3/7/2 4/8/2
f 6/5/3 7/9/3 8/10/3 5/6/3
f 4/11/4 2/12/4 7/9/4 6/13/4
f 1/14/5 3/15/5 5/16/5 8/10/5
f 1/3/6 8/10/6 7/9/6 2/4/6
